Title                            : Kim Bok-nam salinsageonui jeonmal
Also Known As                    : Bedevilled
Year                             : 2010
Genre                            : Crime | Drama | Horror
iMDB URL                         : http://www.imdb.com/title/tt1646959/

Complete name                    : Bedevilled.2010.BRRIP.720P.H264-ZEKTORM.mp4
Format                           : MPEG-4
Format profile                   : Base Media
Codec ID                         : isom
File size                        : 2.15 GiB
Duration                         : 1h 55mn
Overall bit rate                 : 2654 Kbps
Subtitles                        : English (Hardcoded)

Video
ID                               : 1
Format                           : AVC
Format/Info                      : Advanced Video Codec
Format profile                   : High@L4.0
Format settings, CABAC           : Yes
Format settings, ReFrames        : 8 frames
Codec ID                         : avc1
Codec ID/Info                    : Advanced Video Coding
Duration                         : 1h 55mn
Bit rate mode                    : Variable
Bit rate                         : 2451 Kbps
Width                            : 1280 pixels
Height                           : 544 pixels
Display aspect ratio             : 2.35
Frame rate mode                  : Constant
Frame rate                       : 24.000 fps
Resolution                       : 24 bits
Colorimetry                      : 4:2:0
Scan type                        : Progressive
Bits/(Pixel*Frame)               : 0.147
Stream size                      : 1.98 GiB (92%)
Title                            : Video
Writing library                  : x264

Audio
ID                               : 2
Format                           : AAC
Format/Info                      : Advanced Audio Codec
Format version                   : Version 4
Format profile                   : LC
Format settings, SBR             : Yes
Format settings, PS              : No
Codec ID                         : 40
Duration                         : 1h 55mn
Bit rate mode                    : Variable
Bit rate                         : 200 Kbps
Maximum bit rate                 : 262 Kbps
Channel(s)                       : 6 channels
Channel positions                : Front: L C R, Rear: L R, LFE
Sampling rate                    : 48.0 KHz
Resolution                       : 16 bits
Stream size                      : 166 MiB (8%)
Title                            : Korean
Language                         : Korean


Screenshots:

[img]http://img25.imageshack.us/img25/6436/snapb1.png[/img]

[img]http://img20.imageshack.us/img20/5919/snapb2.png[/img]

[img]http://img850.imageshack.us/img850/6734/snapb3.png[/img]

[img]http://img848.imageshack.us/img848/6016/snapb4.png[/img]




